<mxfile host="app.diagrams.net" modified="2023-02-03T10:52:07.278Z" agent="5.0 (Windows)" etag="ioikhTcEEazjfCLL6aiK" version="20.8.16" type="github">
  <diagram name="Seite-1" id="aPtr6aCTntGhLZ0cT5wC">
    <mxGraphModel dx="929" dy="720" grid="1" gridSize="10" guides="1" tooltips="1" connect="1" arrows="1" fold="1" page="1" pageScale="1" pageWidth="827" pageHeight="1169" math="0" shadow="0">
      <root>
        <mxCell id="0" />
        <mxCell id="1" parent="0" />
        <mxCell id="F2YXWnNkTK1Ht0D_ssI6-1" value="Block" style="whiteSpace=wrap;html=1;aspect=fixed;" vertex="1" parent="1">
          <mxGeometry x="680" y="210" width="80" height="80" as="geometry" />
        </mxCell>
      </root>
    </mxGraphModel>
  </diagram>
</mxfile>
